<?xml version="1.0" encoding="utf-8"?>
<!-- Generator: Adobe Illustrator 16.0.0, SVG Export Plug-In . SVG Version: 6.00 Build 0)  -->
<!DOCTYPE svg PUBLIC "-//W3C//DTD SVG 1.0//EN" "http://www.w3.org/TR/2001/REC-SVG-20010904/DTD/svg10.dtd">
<svg version="1.0" id="Layer_1" xmlns="http://www.w3.org/2000/svg" xmlns:xlink="http://www.w3.org/1999/xlink" x="0px" y="0px"
	 width="100px" height="100px" viewBox="0 0 100 100" enable-background="new 0 0 100 100" xml:space="preserve">
<path fill="#FFCA28" d="M88.788,48.135L78.2,41.4c-1.615-1.025-2.595-3.393-2.183-5.262l2.73-12.246
	c0.414-1.867-0.773-3.057-2.643-2.643l-12.245,2.73c-1.867,0.414-4.234-0.567-5.261-2.182l-6.734-10.588
	c-1.025-1.615-2.705-1.615-3.73,0l-6.736,10.588c-1.024,1.615-3.392,2.596-5.26,2.182l-12.244-2.73
	c-1.869-0.414-3.058,0.775-2.645,2.643l2.73,12.246c0.414,1.869-0.565,4.234-2.181,5.262l-10.589,6.734
	c-1.614,1.025-1.614,2.705,0,3.73l10.59,6.734c1.615,1.025,2.594,3.393,2.183,5.262l-2.733,12.246
	c-0.413,1.867,0.773,3.057,2.645,2.643l12.246-2.731c1.867-0.414,4.233,0.567,5.26,2.18l6.734,10.59c1.025,1.616,2.705,1.616,3.73,0
	L58.6,78.197c1.026-1.616,3.394-2.596,5.261-2.179l12.245,2.727c1.869,0.419,3.057-0.769,2.642-2.638l-2.729-12.246
	c-0.417-1.869,0.563-4.236,2.177-5.262l10.594-6.734C90.402,50.84,90.402,49.16,88.788,48.135z M74.619,52.975
	c-3.987,2.533-6.137,7.723-5.107,12.338l1.204,5.404l-5.405-1.206c-0.76-0.169-1.551-0.253-2.352-0.253
	c-3.997,0-7.917,2.104-9.986,5.365L50,79.3l-2.977-4.677c-2.065-3.261-5.988-5.365-9.985-5.365c-0.798,0-1.582,0.084-2.337,0.25
	l-5.416,1.209l1.204-5.404c1.021-4.625-1.131-9.809-5.115-12.34L20.701,50l4.678-2.975c3.979-2.529,6.132-7.713,5.112-12.324
	l-1.206-5.418l5.403,1.206c0.768,0.169,1.552,0.253,2.35,0.253c3.997,0,7.92-2.105,9.989-5.367L50,20.7l2.977,4.678
	c2.064,3.26,5.987,5.365,9.984,5.365c0.798,0,1.582-0.084,2.338-0.25l5.416-1.207l-1.204,5.404
	c-1.021,4.625,1.131,9.807,5.114,12.339L79.3,50L74.619,52.975z"/>
<path fill="#FFCA28" d="M50,33.333c-9.206,0-16.667,7.46-16.667,16.667c0,9.205,7.461,16.666,16.667,16.666S66.667,59.205,66.667,50
	C66.667,40.793,59.206,33.333,50,33.333z M50,60c-5.523,0-10-4.477-10-10s4.477-10,10-10c5.524,0,10,4.477,10,10S55.524,60,50,60z"
	/>
</svg>
